<?xml version="1.0" encoding="UTF-8"?>
<svg id="Layer_1" xmlns="http://www.w3.org/2000/svg" viewBox="0 0 212.12 287.88">
  <defs>
    <style>
      .cls-1 {
        fill: #991b1b;
      }
    </style>
  </defs>
  <path class="cls-1" d="M118.8,18.79v25.52c0,1.27-1.03,2.3-2.3,2.3h-30.28c-33.11,0-40.26,28.07-40.26,34.96h.08l-.8,122.3c0,1.27-1.04,2.29-2.3,2.29h-26.83c-1.27,0-2.3-1.03-2.3-2.3v-122.29h-.08c0-28.11,24.08-65.09,70.48-65.09h32.3c1.27,0,2.3,1.03,2.3,2.3Z"/>
  <path class="cls-1" d="M201.02,207.3c-1.36,27.75-25.04,62.58-69.46,62.58h-17.89c-1.32,0-2.39-1.07-2.39-2.39v-25.34c0-1.32,1.07-2.39,2.39-2.39h16.15c30.38,0,38.9-23.64,40.1-32.86.16-1.2,1.16-2.11,2.38-2.11h26.33c1.36,0,2.45,1.14,2.39,2.51Z"/>
  <path class="cls-1" d="M171.11,92.76l7.52-7.07c1.09-1.01,1.13-2.7.1-3.76l-16.44-16.95c-.61-.62-1.44-.89-2.25-.8h-.06c-.56.07-1.09.31-1.53.72l-16.03,15.09c-3.63-.64-7.36-.97-11.16-.97-35.75,0-65,29.25-65,65.01,0,.24,0,.48,0,.72.34,31.25,23.02,57.39,52.74,63.11,3.97.77,8.06,1.17,12.25,1.17,35.75,0,65-29.25,65-65,0-20.77-9.87-39.35-25.15-51.27ZM132.31,174c-.62.05-1.25.07-1.89.07-16.29,0-29.5-13.43-29.5-30s12.55-29.31,28.26-29.97c.41-.02.82-.03,1.24-.03,16.29,0,29.5,13.43,29.5,30s-12.2,28.95-27.61,29.93Z"/>
</svg>